P2
4 4
255
40
70
30
170
63
143
0
20
0
33
63
0
170
0
143
255
