P2
7 6
216
79 33 0 140 0 7 7
80 143 66 44 14 13 7
48 5 98 51 74 17 13
170 7 8 188 178 170 140
107 75 14 140 192 133 170
187 106 124 111 151 216 151
