P3
4 4
255
0 120 0
100 0 110
30 30 30
255 0 255
15 175 0
0 255 175
0 0 0
10 20 30
0 0 0
33 0 66
0 15 175
0 0 0
255 0 255
0 0 0
0 255 175
255 255 255
